# xmcd CD database file generated by freedbAccess_ocx
#
# Track frame offsets:
#       150
#       13875
#       28874
#       43198
#       57447
#       70047
#       86771
#       122620
#       144220
#       166944
#       185243
#       202043
#
# Disc length: 3016 seconds
#
# Revision: 0
# Processed by: cddbd v1.5.2PL0 Copyright (c) Steve Scherf et al.
# Submitted via: CDnGo 2.09
#
DISCID=ae0bc60c
DTITLE=Lazy Diamonds - Standing At Your Door
DYEAR=2008
DGENRE=Rock
TTITLE0=Hallelujah
TTITLE1=Haydn Blues
TTITLE2=Standing At Your Door
TTITLE3=Invisible Blues
TTITLE4=Hope
TTITLE5=Hard Working Man
TTITLE6=L.A. Woman
TTITLE7=I Don't Want To Be A Cow
TTITLE8=It Was Me Who Had The Blues
TTITLE9=Too Late
TTITLE10=One Dollar Man
TTITLE11=Vanilla Cream
EXTD=
EXTT0=
EXTT1=
EXTT2=
EXTT3=
EXTT4=
EXTT5=
EXTT6=
EXTT7=
EXTT8=
EXTT9=
EXTT10=
EXTT11=
PLAYORDER=
